<svg xmlns="http://www.w3.org/2000/svg" viewBox="0 0 256 256" width="256" height="256">
  <defs>
    <linearGradient id="bg" x1="0%" y1="0%" x2="100%" y2="100%">
      <stop offset="0%" style="stop-color:#2563eb"/>
      <stop offset="100%" style="stop-color:#1d4ed8"/>
    </linearGradient>
    <linearGradient id="folder" x1="0%" y1="0%" x2="100%" y2="100%">
      <stop offset="0%" style="stop-color:#fbbf24"/>
      <stop offset="100%" style="stop-color:#f59e0b"/>
    </linearGradient>
  </defs>
  <!-- Rounded square background -->
  <rect x="8" y="8" width="240" height="240" rx="48" fill="url(#bg)"/>
  <!-- Folder body -->
  <path d="M56 88 L56 188 C56 194 61 199 67 199 L189 199 C195 199 200 194 200 188 L200 108 C200 102 195 97 189 97 L140 97 L126 82 C124 80 121 79 118 79 L67 79 C61 79 56 84 56 88Z" fill="url(#folder)" opacity="0.95"/>
  <!-- Folder tab highlight -->
  <path d="M56 88 C56 84 61 79 67 79 L118 79 C121 79 124 80 126 82 L140 97 L56 97Z" fill="#fcd34d" opacity="0.7"/>
  <!-- Sparkle / fit icon (checkmark inside folder) -->
  <path d="M105 155 L122 170 L158 130" fill="none" stroke="#fff" stroke-width="10" stroke-linecap="round" stroke-linejoin="round" opacity="0.95"/>
  <!-- Small organizing lines -->
  <rect x="80" y="115" width="32" height="4" rx="2" fill="#fff" opacity="0.5"/>
  <rect x="80" y="125" width="24" height="4" rx="2" fill="#fff" opacity="0.35"/>
</svg>
